<svg width="130" height="21" viewBox="0 0 130 21" fill="none" xmlns="http://www.w3.org/2000/svg">
<path d="M56.962 20.1113L53.6943 11.9536L49.0136 0.0805664H48.7486L44.1562 11.6306C43.0965 10.8229 41.6834 10.3383 39.8288 10.096L39.3872 10.0152L39.8288 9.93441C42.8315 9.4498 44.9511 7.67287 44.9511 5.57287C44.9511 2.66518 41.9484 0.645951 37.7092 0.645951H28.3478V0.969028H31.2622V15.8306L24.9918 0.0805664H24.7269L16.7785 20.0306C16.6902 20.0306 16.6019 20.0306 16.4253 20.0306C16.2486 20.0306 16.072 20.0306 15.9837 20.0306H9.71332L21.9891 0.645951H6.88723V6.78441H7.15217C7.15217 3.87672 9.00679 0.969028 13.1576 0.969028H17.8383L5.5625 20.3536H22.3424V14.5383H22.0774C22.0774 17.0421 20.4878 19.4652 17.1318 20.0306L19.6929 13.7306H26.9348L29.4959 20.1921H27.1114V20.4344H36.7378V20.1921H34.5299V10.2575H37.5326C40.6236 10.2575 42.3899 11.469 42.3899 13.6498V15.4267C42.3899 15.5883 42.3899 15.7498 42.3899 15.9921L40.8003 20.1113H38.9457V20.3536H42.9198V20.1113H41.0652L42.3899 16.719V16.9613V17.2036C42.6549 18.5767 43.1848 19.5459 44.0679 20.1921L44.1562 20.2729C44.8628 20.6767 45.7459 20.919 46.7174 20.919C48.0421 20.919 48.837 20.596 49.5435 19.9498L49.3669 19.7883C48.7486 20.3536 48.1304 20.596 47.5122 20.596C46.2758 20.596 45.7459 19.3036 45.7459 18.0113V15.5883C45.7459 14.9421 45.6576 14.296 45.3927 13.8113H50.7799L53.341 20.2729H50.8682V20.5152H59.2582V20.2729L56.962 20.1113ZM19.7812 13.4075L23.3139 4.52287L26.8465 13.4075H19.7812ZM34.5299 10.0152V1.0498H36.8261C39.9171 1.0498 41.5068 2.58441 41.5068 5.73441C41.5068 9.12672 40.5353 10.0152 37.5326 10.0152H34.5299ZM45.481 13.4075C45.216 12.9229 44.8628 12.4383 44.5095 12.0344L44.4212 11.9536L47.3356 4.52287L50.8682 13.4075H45.481Z" fill="black"/>
<path d="M123.995 14.6189C123.995 17.6074 122.052 20.1112 117.194 20.1112H113.573V10.3381H114.898C117.371 10.3381 118.784 11.5497 118.784 13.4074H119.049V6.86506H118.784C118.784 8.80352 117.371 10.0151 114.898 10.0151H113.573V0.968908H117.283C121.08 0.968908 122.582 3.14968 122.582 5.73429H122.846V0.7266H103.682L98.0299 15.9112L91.8478 0.7266H85.4891V1.04968H88.2269V8.39968C87.2554 3.79583 83.3696 0.322754 78.6005 0.322754C73.8315 0.322754 69.9457 3.71506 68.9742 8.31891V1.04968H71.712V0.7266H62.8804V1.04968H65.6182V10.0151H56.875V0.968908H59.6128V0.7266H50.7812V1.04968H53.519V11.9535L56.7867 20.1112V10.2574H65.5299V20.1112H62.7921V20.3535H71.6236V20.1112H68.8859V12.7612C69.8573 17.3651 73.7432 20.7574 78.5122 20.7574C83.2812 20.7574 87.2554 17.2843 88.1386 12.6804V20.1112H84.9592V20.3535H91.5829V20.1112H88.4035V1.04968L96.3519 20.8381H96.4402L103.682 1.61506V20.0304H100.856V20.2728H124.26V14.5381H123.995V14.6189ZM82.3981 19.3843C81.3383 20.192 80.1019 20.5151 78.5122 20.5151C76.9226 20.5151 75.6861 20.192 74.6264 19.3843C72.9484 18.092 72.0652 15.4266 72.0652 10.5804C72.0652 5.73429 72.9484 3.06891 74.6264 1.7766C75.6861 0.968908 76.9226 0.645831 78.5122 0.645831C80.1019 0.645831 81.3383 0.968908 82.3981 1.7766C83.9878 2.98814 84.9592 5.65352 84.9592 10.4997C84.9592 15.4266 83.9878 18.092 82.3981 19.3843ZM110.394 20.1112H107.038V1.04968H110.394V20.1112Z" fill="black"/>
</svg>
