<svg width="20" height="24" viewBox="0 0 20 24" fill="none" xmlns="http://www.w3.org/2000/svg">
<path fill-rule="evenodd" clip-rule="evenodd" d="M0.824219 2.29022C0.824219 1.88851 1.10008 1.56287 1.44037 1.56287H3.00233C3.61761 1.56287 4.16469 2.02507 4.36316 2.71258L4.7479 4.04533H14.9953C17.1505 4.04533 18.8976 6.10777 18.8976 8.65192V12.6693C18.8976 15.2134 17.1505 17.2759 14.9953 17.2759H8.84704C6.95797 17.2759 5.34017 15.6785 5.00623 13.4836L3.70871 4.95533L3.19674 3.18182C3.16838 3.08361 3.09023 3.01758 3.00233 3.01758H1.44037C1.10008 3.01758 0.824219 2.69193 0.824219 2.29022ZM5.0436 5.50005L6.21912 13.2264C6.4476 14.7282 7.55452 15.8211 8.84704 15.8211H14.9953C16.4699 15.8211 17.6653 14.41 17.6653 12.6693V8.65192C17.6653 6.91119 16.4699 5.50005 14.9953 5.50005H5.0436Z" fill="white"/>
<path fill-rule="evenodd" clip-rule="evenodd" d="M7.80469 19.9892C7.80469 19.1858 8.35641 18.5345 9.03698 18.5345H9.0452C9.72578 18.5345 10.2775 19.1858 10.2775 19.9892C10.2775 20.7926 9.72578 21.4439 9.0452 21.4439H9.03698C8.35641 21.4439 7.80469 20.7926 7.80469 19.9892Z" fill="white"/>
<path fill-rule="evenodd" clip-rule="evenodd" d="M14.3789 19.9892C14.3789 19.1858 14.9306 18.5345 15.6112 18.5345H15.6194C16.3 18.5345 16.8517 19.1858 16.8517 19.9892C16.8517 20.7926 16.3 21.4439 15.6194 21.4439H15.6112C14.9306 21.4439 14.3789 20.7926 14.3789 19.9892Z" fill="white"/>
</svg>
